<svg width="54" height="54" viewBox="0 0 54 54" fill="none" xmlns="http://www.w3.org/2000/svg">
<g clip-path="url(#clip0_345_19)">
<path d="M27 4.5C14.625 4.5 4.5 14.625 4.5 27C4.5 39.375 14.625 49.5 27 49.5C39.375 49.5 49.5 39.375 49.5 27V24.75C48.15 26.775 46.8 28.575 45.675 30.15C44.775 35.1 42.075 39.375 38.25 42.3C38.025 41.625 37.8 40.725 37.575 40.05C37.35 39.15 37.125 38.25 36.675 37.35C36.45 36.45 36.225 35.55 35.775 34.875C35.55 34.65 35.1 34.425 34.65 34.2C33.075 33.75 31.05 34.425 29.925 32.85C29.475 32.175 29.475 31.5 29.7 30.6C30.15 29.925 30.375 29.25 30.825 28.575C31.275 27.675 31.95 26.55 32.175 25.425C30.375 22.725 28.575 19.575 27.675 16.65H27.45C27.225 16.65 27.225 16.65 27 16.425C26.55 15.975 26.325 14.85 26.55 14.175C26.55 13.05 27.225 12.375 27 11.25C27 11.025 26.775 9.225 26.775 9.225C26.1 9.225 24.975 9.225 25.2 8.1V7.875H27H28.125C28.575 6.525 29.475 5.4 30.15 4.5H27ZM40.5 4.5C35.55 4.5 31.5 8.55 31.5 13.5C31.5 18.45 40.5 29.25 40.5 29.25C40.5 29.25 49.5 18.45 49.5 13.5C49.5 8.55 45.45 4.5 40.5 4.5ZM40.5 10.125C42.3 10.125 43.875 11.7 43.875 13.5C43.875 15.3 42.3 16.875 40.5 16.875C38.7 16.875 37.125 15.3 37.125 13.5C37.125 11.7 38.7 10.125 40.5 10.125ZM18 11.475C18.9 11.475 19.575 11.475 20.25 11.7C20.925 11.925 21.6 12.375 22.05 12.825C22.5 13.275 23.175 13.95 23.175 14.625C23.175 14.85 23.175 15.075 22.95 15.075C22.725 15.3 22.5 15.3 22.275 15.3C21.6 15.3 20.925 15.3 20.475 15.075C20.25 14.85 19.8 14.4 19.35 14.175C18.225 13.725 16.2 16.65 15.975 17.55C15.75 18.225 15.75 19.8 16.875 20.025C17.55 20.025 19.125 18.675 19.575 18.225C20.025 18 20.25 17.775 20.7 17.55C22.5 17.325 23.85 18.9 24.3 20.475C24.75 22.275 21.6 23.625 20.25 24.075C19.8 24.3 19.575 23.85 19.125 24.075C18 24.525 16.65 26.1 16.65 27.225C16.65 28.35 16.425 29.475 16.2 30.6C15.975 30.6 15.75 30.375 15.75 30.375V29.925C15.75 29.25 15.525 28.575 14.85 28.125C14.625 28.125 14.625 27.9 14.4 27.9C13.725 27.675 13.05 27 12.375 27.675C11.925 28.125 11.475 28.8 11.475 29.475C11.475 29.7 11.475 29.925 11.7 30.15C12.15 30.375 12.6 30.15 13.05 30.15C13.275 30.15 13.5 30.6 13.725 30.825C14.175 31.5 14.4 32.625 15.3 32.625H16.875H19.8C20.475 32.85 21.6 33.075 22.05 33.525C22.275 33.975 22.275 34.425 22.5 34.875C23.4 36 24.975 36 26.325 36.45C26.775 36.675 27 36.9 27 37.35C27 38.025 26.775 38.925 26.55 39.6C26.325 40.275 26.1 41.175 25.65 41.625C25.2 42.075 24.75 42.3 24.3 42.525C23.4 42.975 22.95 43.875 22.5 44.55C22.5 44.55 22.275 45 22.05 45.225C20.25 44.775 18.675 44.1 17.1 42.975V42.525C16.875 41.625 16.65 40.95 16.425 40.275C15.975 39.15 15.3 37.8 15.075 36.675C15.075 35.55 15.3 34.425 14.625 33.525C13.95 32.4 12.15 32.4 11.025 31.725C10.125 30.825 9 29.925 8.1 28.8V27C8.1 20.925 11.025 15.525 15.525 11.925C16.425 11.7 17.1 11.475 18 11.475Z" fill="#C40C11" fill-opacity="0.74"/>
</g>
<defs>
<clipPath id="clip0_345_19">
<rect width="54" height="54" fill="white"/>
</clipPath>
</defs>
</svg>
