<svg width="44" height="44" viewBox="0 0 44 44" fill="none" xmlns="http://www.w3.org/2000/svg">
<path d="M22 0C9.84923 0 0 9.84923 0 22C0 34.1508 9.84923 44 22 44C34.1508 44 44 34.1508 44 22C44 9.84923 34.1508 0 22 0ZM22 40.6154C11.7192 40.6154 3.38462 32.2808 3.38462 22C3.38462 11.7192 11.7192 3.38462 22 3.38462C32.2808 3.38462 40.6154 11.7192 40.6154 22C40.6154 32.2808 32.2808 40.6154 22 40.6154ZM19.7188 14.8432C18.5782 13.5926 17.2091 12.9682 15.6048 12.9682C13.9632 12.9682 12.6094 13.5368 11.5483 14.6757C11.1202 15.1428 10.7783 15.6928 10.5262 16.3274C10.274 16.962 10.1488 17.6068 10.1488 18.2583C10.1488 19.602 10.5278 20.746 11.2826 21.6886C12.0374 22.6312 13.024 23.1948 14.2391 23.3809L14.6605 23.408L15.0243 23.4655C15.5845 23.54 15.8654 23.7549 15.8654 24.1086C15.8654 24.4826 15.4914 25.0698 14.7434 25.872C13.9582 26.73 12.716 27.5998 11.0152 28.4748C10.3045 28.8488 9.95077 29.3142 9.95077 29.8743C9.95077 30.2297 10.0709 30.5242 10.3146 30.756C10.5566 30.9895 10.8646 31.1046 11.2386 31.1046C12.1711 31.1046 13.4589 30.5648 15.1005 29.4817C17.0398 28.2125 18.59 26.6691 19.7458 24.8482C20.9034 23.0306 21.4805 21.2334 21.4805 19.4598C21.4805 18.6205 21.3214 17.7862 21.0049 16.9552C20.6885 16.1243 20.2586 15.422 19.7188 14.8432ZM33.0389 14.8432C31.9051 13.5926 30.5462 12.9682 28.9638 12.9682C27.3071 12.9682 25.9566 13.5368 24.9142 14.6757C24.4843 15.1428 24.1458 15.6978 23.8937 16.3409C23.6415 16.984 23.5163 17.6237 23.5163 18.2583C23.5163 19.602 23.8886 20.7511 24.6315 21.7022C25.3745 22.6532 26.3543 23.2134 27.5626 23.3809L28.0094 23.408L28.3428 23.4655C28.9012 23.54 29.1805 23.7549 29.1805 24.1086C29.1805 24.4826 28.8166 25.0698 28.0906 25.872C27.3274 26.6928 26.0886 27.5609 24.3777 28.4748C23.6686 28.8488 23.3149 29.3142 23.3149 29.8743C23.3149 30.2297 23.4368 30.5242 23.6788 30.756C23.9225 30.9895 24.2288 31.1046 24.6011 31.1046C25.5318 31.1046 26.818 30.5648 28.4545 29.4817C30.3922 28.2125 31.9338 26.6691 33.0778 24.8482C34.2218 23.0306 34.7955 21.2334 34.7955 19.4598C34.7955 18.6205 34.6382 17.7862 34.3217 16.9552C34.0086 16.126 33.5805 15.422 33.0389 14.8432Z" fill="#C40C11" fill-opacity="0.74"/>
</svg>
