<svg width="27" height="27" viewBox="0 0 27 27" fill="none" xmlns="http://www.w3.org/2000/svg">
<path d="M20.2177 22.95H6.78244C6.09342 22.9797 5.40888 22.8255 4.7991 22.5033C4.18932 22.1812 3.67622 21.7026 3.31239 21.1168C2.94856 20.5309 2.74709 19.8587 2.72868 19.1694C2.71028 18.4799 2.87559 17.7981 3.20764 17.1936L9.92522 5.51882C10.2976 4.90407 10.8223 4.39577 11.4485 4.04298C12.0747 3.69018 12.7812 3.50482 13.5 3.50482C14.2187 3.50482 14.9254 3.69018 15.5516 4.04298C16.1777 4.39577 16.7025 4.90407 17.0749 5.51882L23.7925 17.1936C24.1245 17.7981 24.2898 18.4799 24.2714 19.1694C24.253 19.8587 24.0516 20.5309 23.6877 21.1168C23.3239 21.7026 22.8107 22.1812 22.2009 22.5033C21.5911 22.8255 20.9066 22.9797 20.2177 22.95Z" stroke="#C40C11" stroke-opacity="0.74" stroke-width="1.62" stroke-linecap="round" stroke-linejoin="round"/>
<path d="M12.8831 18.2643L12.883 18.2644C12.8493 18.3452 12.8318 18.4319 12.8315 18.5195C12.8332 18.6483 12.8725 18.7736 12.9446 18.8801L12.9446 18.8802C13.0173 18.9876 13.1198 19.071 13.2394 19.1202L13.2397 19.1203C13.3594 19.1696 13.4909 19.1824 13.6179 19.1573C13.7451 19.1321 13.862 19.0701 13.9539 18.979L12.8831 18.2643ZM12.8831 18.2643C12.9171 18.1827 12.9669 18.1087 13.0296 18.0465L13.0298 18.0463M12.8831 18.2643L13.0298 18.0463M13.0298 18.0463C13.0925 17.9842 13.1671 17.935 13.249 17.9016M13.0298 18.0463L13.249 17.9016M13.249 17.9016C13.3303 17.8687 13.417 17.8519 13.5046 17.8524M13.249 17.9016L13.5046 17.8524M13.5046 17.8524C13.6333 17.8552 13.7583 17.8956 13.8642 17.9686C13.9707 18.0421 14.0534 18.1454 14.1017 18.2656C14.1499 18.3859 14.1616 18.5176 14.1354 18.6445C14.1091 18.7713 14.0461 18.8876 13.954 18.9789L13.5046 17.8524ZM13.2203 15.5736V15.5664L13.2201 15.5591L13.0689 9.92155L13.0683 9.90027L13.0661 9.87911C13.0597 9.81878 13.0661 9.75802 13.0847 9.70075L13.0848 9.70035C13.1035 9.64272 13.134 9.58972 13.1745 9.54477L13.1745 9.54475C13.215 9.4998 13.2645 9.46379 13.3198 9.43911C13.3752 9.41444 13.4351 9.40169 13.4957 9.40169C13.5563 9.40169 13.6162 9.41445 13.6714 9.43904L13.6715 9.4391C13.7267 9.4637 13.7762 9.49964 13.8168 9.54475L13.8168 9.54477C13.8574 9.58991 13.888 9.64296 13.9066 9.70035L13.9066 9.70036C13.9253 9.75815 13.9317 9.81906 13.9253 9.87911L13.923 9.90079L13.9225 9.92258L13.7821 15.5602L13.7819 15.5602V15.5736C13.7819 15.648 13.7523 15.7195 13.6997 15.7722C13.6468 15.8249 13.5753 15.8544 13.5011 15.8544C13.4266 15.8544 13.3552 15.8248 13.3025 15.7722C13.2499 15.7195 13.2203 15.648 13.2203 15.5736Z" stroke="#C40C11" stroke-opacity="0.74" stroke-width="1.08"/>
</svg>
