<svg xmlns="http://www.w3.org/2000/svg" width="34" height="34" fill="none" xmlns:v="https://vecta.io/nano"><path d="M9.233 0h13.339c5.794 0 9.248 3.454 9.248 9.248v13.323c2.929 11.429 5.221 12.193-9.248 9.264H9.248C3.454 31.836 0 28.382 0 22.588V9.248C-.016 3.454 3.438 0 9.233 0zm7.291 15.663c0 4.903 1.067 6.001 3.916 7.688.191.111.398.159.605.159.414 0 .812-.207 1.035-.589.334-.573.143-1.305-.414-1.64-1.926-1.146-2.595-1.56-2.722-4.441h3.024a3.05 3.05 0 0 0 3.088-3.088v-2.356a3.05 3.05 0 0 0-3.088-3.088h-2.372a3.09 3.09 0 0 0-3.088 3.088v4.266h.016zm-9.774 0c0 4.903 1.067 6.001 3.916 7.688.191.111.398.159.605.159.414 0 .812-.207 1.035-.589.334-.573.143-1.305-.414-1.64-1.926-1.146-2.595-1.56-2.722-4.441h3.04a3.05 3.05 0 0 0 3.088-3.088v-2.356a3.05 3.05 0 0 0-3.088-3.088H9.837a3.09 3.09 0 0 0-3.088 3.088v4.266z" fill="#c40c11" fill-opacity=".74"/></svg>